<mxfile host="65bd71144e">
    <diagram id="8rtNleXkwrAkhrkHejNM" name="Page-1">
        <mxGraphModel dx="978" dy="632" grid="1" gridSize="10" guides="1" tooltips="1" connect="1" arrows="1" fold="1" page="1" pageScale="1" pageWidth="850" pageHeight="1100" math="0" shadow="0">
            <root>
                <mxCell id="0"/>
                <mxCell id="1" parent="0"/>
                <mxCell id="4" value="Option 1: Hardware" style="shape=cube;whiteSpace=wrap;html=1;boundedLbl=1;backgroundOutline=1;darkOpacity=0.05;darkOpacity2=0.1;fillColor=#e1d5e7;strokeColor=#9673a6;labelPosition=center;verticalLabelPosition=top;align=center;verticalAlign=bottom;fontStyle=1" vertex="1" parent="1">
                    <mxGeometry x="40" y="80" width="230" height="150" as="geometry"/>
                </mxCell>
                <mxCell id="5" value="e.g. Raspberry Pi - SD-Card" style="rounded=0;whiteSpace=wrap;html=1;labelPosition=center;verticalLabelPosition=top;align=center;verticalAlign=bottom;" vertex="1" parent="1">
                    <mxGeometry x="80" y="130" width="170" height="80" as="geometry"/>
                </mxCell>
                <mxCell id="6" value="Eclipse Leda&lt;br&gt;Quickstart Image&lt;br&gt;&lt;b&gt;ARM-64&lt;/b&gt;" style="rounded=1;whiteSpace=wrap;html=1;fillColor=#d5e8d4;strokeColor=#82b366;" vertex="1" parent="1">
                    <mxGeometry x="105" y="140" width="120" height="60" as="geometry"/>
                </mxCell>
                <mxCell id="7" value="Option 2: Docker Containers" style="shape=cube;whiteSpace=wrap;html=1;boundedLbl=1;backgroundOutline=1;darkOpacity=0.05;darkOpacity2=0.1;fillColor=#e1d5e7;strokeColor=#9673a6;labelPosition=center;verticalLabelPosition=top;align=center;verticalAlign=bottom;fontStyle=1" vertex="1" parent="1">
                    <mxGeometry x="300" y="80" width="230" height="380" as="geometry"/>
                </mxCell>
                <mxCell id="8" value="Leda Docker Image" style="rounded=0;whiteSpace=wrap;html=1;labelPosition=center;verticalLabelPosition=top;align=center;verticalAlign=bottom;fillColor=#dae8fc;strokeColor=#6c8ebf;" vertex="1" parent="1">
                    <mxGeometry x="340" y="130" width="170" height="140" as="geometry"/>
                </mxCell>
                <mxCell id="10" value="QEMU" style="rounded=0;whiteSpace=wrap;html=1;labelPosition=center;verticalLabelPosition=top;align=center;verticalAlign=bottom;fillColor=#fff2cc;strokeColor=#d6b656;" vertex="1" parent="1">
                    <mxGeometry x="355" y="160" width="140" height="80" as="geometry"/>
                </mxCell>
                <mxCell id="9" value="Eclipse Leda&lt;br&gt;Quickstart Image&lt;br&gt;&lt;b&gt;X86_64&lt;/b&gt;" style="rounded=1;whiteSpace=wrap;html=1;fillColor=#d5e8d4;strokeColor=#82b366;" vertex="1" parent="1">
                    <mxGeometry x="365" y="170" width="120" height="60" as="geometry"/>
                </mxCell>
                <mxCell id="11" value="Option 3: Package Installation" style="shape=cube;whiteSpace=wrap;html=1;boundedLbl=1;backgroundOutline=1;darkOpacity=0.05;darkOpacity2=0.1;fillColor=#e1d5e7;strokeColor=#9673a6;labelPosition=center;verticalLabelPosition=top;align=center;verticalAlign=bottom;fontStyle=1" vertex="1" parent="1">
                    <mxGeometry x="40" y="270" width="230" height="190" as="geometry"/>
                </mxCell>
                <mxCell id="12" value="Debian, Ubuntu" style="rounded=0;whiteSpace=wrap;html=1;labelPosition=center;verticalLabelPosition=top;align=center;verticalAlign=bottom;" vertex="1" parent="1">
                    <mxGeometry x="80" y="320" width="170" height="120" as="geometry"/>
                </mxCell>
                <mxCell id="14" value="Eclipse Leda&lt;br&gt;Debian Packages" style="rounded=1;whiteSpace=wrap;html=1;fillColor=#d5e8d4;strokeColor=#82b366;" vertex="1" parent="1">
                    <mxGeometry x="105" y="340" width="120" height="40" as="geometry"/>
                </mxCell>
                <mxCell id="16" value="containerd" style="rounded=1;whiteSpace=wrap;html=1;fillColor=#f5f5f5;strokeColor=#666666;fontColor=#333333;" vertex="1" parent="1">
                    <mxGeometry x="105" y="390" width="120" height="30" as="geometry"/>
                </mxCell>
                <mxCell id="20" value="Leda Docker Image" style="rounded=0;whiteSpace=wrap;html=1;labelPosition=center;verticalLabelPosition=top;align=center;verticalAlign=bottom;fillColor=#dae8fc;strokeColor=#6c8ebf;" vertex="1" parent="1">
                    <mxGeometry x="340" y="300" width="170" height="140" as="geometry"/>
                </mxCell>
                <mxCell id="17" value="Eclipse Leda&lt;br&gt;Quickstart Image&lt;br&gt;X86_64" style="rounded=1;whiteSpace=wrap;html=1;fillColor=#d5e8d4;strokeColor=#82b366;" vertex="1" parent="1">
                    <mxGeometry x="365" y="340" width="120" height="60" as="geometry"/>
                </mxCell>
                <mxCell id="18" value="QEMU" style="rounded=0;whiteSpace=wrap;html=1;labelPosition=center;verticalLabelPosition=top;align=center;verticalAlign=bottom;fillColor=#fff2cc;strokeColor=#d6b656;" vertex="1" parent="1">
                    <mxGeometry x="355" y="330" width="140" height="80" as="geometry"/>
                </mxCell>
                <mxCell id="19" value="Eclipse Leda&lt;br&gt;Quickstart Image&lt;br&gt;&lt;b&gt;ARM64&lt;/b&gt;" style="rounded=1;whiteSpace=wrap;html=1;fillColor=#d5e8d4;strokeColor=#82b366;" vertex="1" parent="1">
                    <mxGeometry x="365" y="340" width="120" height="60" as="geometry"/>
                </mxCell>
            </root>
        </mxGraphModel>
    </diagram>
</mxfile>